# xmcd CD database file
#
# Track frame offsets:
#	150
#	10095
#	22815
#	41283
#	54066
#	65286
#	80897
#	95728
#	105659
#	114376
#	127242
#	147235
#
# Disc length: 2153 seconds
#
# Revision: 1
# Processed by: cddbd v1.5.2PL0 Copyright (c) Steve Scherf et al.
# Submitted via: CDex 1.51
#
DISCID=9608670c
DTITLE=Rolando Boldrin - Caipira
DYEAR=2004
DGENRE=Caipira
TTITLE0=Tip - Tip - Tim
TTITLE1=Balagulá
TTITLE2=Chapéu de Paia
TTITLE3=Avoa Jacutinga
TTITLE4=Flor do Cafezal
TTITLE5=Caçada
TTITLE6=Cabocla Tereza
TTITLE7=Psiu Psiu
TTITLE8=Felicidade
TTITLE9=Paulistinha
TTITLE10=Romance de uma Caveira
TTITLE11=O Sapo no Saco
EXTD=YEAR: 2004
EXTT0=
EXTT1=
EXTT2=
EXTT3=
EXTT4=
EXTT5=
EXTT6=
EXTT7=
EXTT8=
EXTT9=
EXTT10=
EXTT11=
PLAYORDER=
